<?xml version="1.0" encoding="iso-8859-1"?>
<!-- Generator: Adobe Illustrator 19.0.0, SVG Export Plug-In . SVG Version: 6.00 Build 0)  -->
<svg version="1.1" id="Capa_1" xmlns="http://www.w3.org/2000/svg" xmlns:xlink="http://www.w3.org/1999/xlink" x="0px" y="0px"
	 viewBox="0 0 512.035 512.035" style="enable-background:new 0 0 512.035 512.035;" xml:space="preserve">
<g>
	<path style="fill:#556080;" d="M259.619,386.842l-9.975-20.039c-1.515-2.993-4.591-4.872-7.945-4.855h-112.64
		c-3.354-0.017-6.43,1.862-7.945,4.855l-44.138,88.276c-1.372,2.747-1.222,6.01,0.398,8.619c1.619,2.609,4.476,4.192,7.547,4.181
		l197.561,0"/>
	<g>
		<path style="fill:#BDC3C7;" d="M260.679,427.802l-9.887,40.077l-2.825,11.652c-1.999,7.723-0.339,15.935,4.502,22.276
			c4.841,6.34,12.327,10.104,20.303,10.21h0.088c11.382-0.093,21.34-7.678,24.452-18.626l10.152-34.428L260.679,427.802z"/>
		<path style="fill:#BDC3C7;" d="M498.494,427.802l12.712,51.73c1.999,7.723,0.339,15.935-4.502,22.276
			c-4.841,6.34-12.327,10.104-20.303,10.21h-0.088c-11.382-0.093-21.34-7.678-24.452-18.626l-10.152-34.428L498.494,427.802z"/>
	</g>
	<g>
		<polyline style="fill:#464F5D;" points="220.69,317.81 220.69,357.173 220.69,414.914 150.069,414.914 150.069,357.173 
			150.069,317.81 		"/>
		<path style="fill:#464F5D;" d="M17.655,0.017h335.448c9.751,0,17.655,7.904,17.655,17.655V282.5H0V17.672
			C0,7.922,7.904,0.017,17.655,0.017z"/>
	</g>
	<path style="fill:#67B9CC;" d="M335.448,44.155v194.207c0,4.875-3.952,8.828-8.828,8.828H44.138c-4.875,0-8.828-3.952-8.828-8.828
		V44.155c0-4.875,3.952-8.828,8.828-8.828h282.483C331.496,35.328,335.448,39.28,335.448,44.155z"/>
	<path style="fill:#556080;" d="M0,282.5c0,24.364,82.979,44.138,185.379,44.138s185.379-19.774,185.379-44.138H0z"/>
	<g>
		<path style="fill:#F0C419;" d="M105.931,79.466H88.276c-4.875,0-8.828-3.952-8.828-8.828s3.952-8.828,8.828-8.828h17.655
			c4.875,0,8.828,3.952,8.828,8.828S110.806,79.466,105.931,79.466z"/>
		<path style="fill:#F0C419;" d="M123.586,105.948H70.621c-4.875,0-8.828-3.952-8.828-8.828s3.952-8.828,8.828-8.828h52.966
			c4.875,0,8.828,3.952,8.828,8.828S128.462,105.948,123.586,105.948z"/>
		<path style="fill:#F0C419;" d="M194.207,79.466h-17.655c-4.875,0-8.828-3.952-8.828-8.828s3.952-8.828,8.828-8.828h17.655
			c4.875,0,8.828,3.952,8.828,8.828S199.082,79.466,194.207,79.466z"/>
		<path style="fill:#F0C419;" d="M211.862,105.948h-52.966c-4.875,0-8.828-3.952-8.828-8.828s3.952-8.828,8.828-8.828h52.966
			c4.875,0,8.828,3.952,8.828,8.828S216.737,105.948,211.862,105.948z"/>
		<path style="fill:#F0C419;" d="M282.483,79.466h-17.655c-4.875,0-8.828-3.952-8.828-8.828s3.952-8.828,8.828-8.828h17.655
			c4.875,0,8.828,3.952,8.828,8.828S287.358,79.466,282.483,79.466z"/>
		<path style="fill:#F0C419;" d="M300.138,105.948h-52.966c-4.875,0-8.828-3.952-8.828-8.828s3.952-8.828,8.828-8.828h52.966
			c4.875,0,8.828,3.952,8.828,8.828S305.013,105.948,300.138,105.948z"/>
	</g>
	<g>
		<path style="fill:#ECF0F1;" d="M203.034,220.707c-2.341,0.001-4.587-0.929-6.243-2.585c-1.656-1.656-2.585-3.901-2.585-6.243
			v-8.828h-17.655v8.828c0,4.875-3.952,8.828-8.828,8.828s-8.828-3.952-8.828-8.828v-17.655c-0.001-2.341,0.929-4.587,2.585-6.243
			c1.656-1.656,3.901-2.585,6.243-2.585h35.31c2.341-0.001,4.587,0.929,6.243,2.585c1.656,1.656,2.585,3.901,2.585,6.243v17.655
			c0.001,2.341-0.929,4.587-2.585,6.243C207.622,219.778,205.376,220.708,203.034,220.707z"/>
		<path style="fill:#ECF0F1;" d="M185.379,203.052c-2.341,0.001-4.587-0.929-6.243-2.585c-1.656-1.656-2.585-3.901-2.585-6.243
			v-26.483c0-4.875,3.952-8.828,8.828-8.828c4.875,0,8.828,3.952,8.828,8.828v26.483c0.001,2.341-0.929,4.587-2.585,6.243
			C189.966,202.123,187.721,203.052,185.379,203.052z"/>
	</g>
	<path style="fill:#E64C3C;" d="M185.379,141.259c-2.341,0.001-4.587-0.929-6.243-2.585c-1.656-1.656-2.585-3.901-2.585-6.243
		v-8.828c0-4.875,3.952-8.828,8.828-8.828c4.875,0,8.828,3.952,8.828,8.828v8.828c0.001,2.341-0.929,4.587-2.585,6.243
		C189.966,140.329,187.721,141.259,185.379,141.259z"/>
	<path style="fill:#ECF0F1;" d="M404.392,432.569c9.431,16.391,26.904,26.491,45.815,26.483c0.502,0.017,1.004-0.012,1.501-0.088
		c28.943-0.802,51.871-24.71,51.461-53.662c-0.41-28.951-24.007-52.2-52.961-52.181c-10.403-0.043-20.58,3.032-29.219,8.828h-82.803
		c-8.639-5.796-18.816-8.87-29.219-8.828c-21.817,0.027-41.394,13.405-49.346,33.721c-2.419,6.126-3.647,12.658-3.619,19.244
		c0.024,28.647,22.829,52.078,51.465,52.877c0.496,0.076,0.999,0.106,1.501,0.088c18.911,0.009,36.384-10.092,45.815-26.483H404.392
		z"/>
	<g>
		<path style="fill:#7F8C8D;" d="M308.966,432.569c-2.341,0.001-4.587-0.929-6.243-2.585c-1.656-1.656-2.585-3.901-2.585-6.243
			v-35.31c0-4.875,3.952-8.828,8.828-8.828s8.828,3.952,8.828,8.828v35.31c0.001,2.341-0.929,4.587-2.585,6.243
			C313.553,431.64,311.307,432.57,308.966,432.569z"/>
		<path style="fill:#7F8C8D;" d="M326.621,414.914h-35.31c-4.875,0-8.828-3.952-8.828-8.828s3.952-8.828,8.828-8.828h35.31
			c4.875,0,8.828,3.952,8.828,8.828S331.496,414.914,326.621,414.914z"/>
	</g>
	<path style="fill:#4482C3;" d="M432.552,397.259c-0.564-0.016-1.126-0.075-1.681-0.177c-0.583-0.085-1.147-0.264-1.672-0.53
		c-0.565-0.194-1.101-0.462-1.595-0.797c-0.44-0.35-0.879-0.703-1.319-1.056c-3.414-3.481-3.414-9.054,0-12.534l1.319-1.06
		c0.494-0.335,1.03-0.604,1.595-0.797c0.524-0.267,1.09-0.445,1.672-0.526c2.881-0.58,5.862,0.313,7.948,2.383
		c0.353,0.44,0.707,0.879,1.06,1.41c0.347,0.452,0.615,0.959,0.793,1.5c0.269,0.526,0.447,1.095,0.526,1.681
		c0.107,0.553,0.168,1.114,0.181,1.677c-0.018,0.591-0.078,1.18-0.181,1.763c-0.093,0.554-0.27,1.09-0.526,1.59
		c-0.194,0.562-0.461,1.097-0.793,1.591c-0.353,0.44-0.707,0.879-1.06,1.323c-0.44,0.353-0.888,0.707-1.328,1.056
		c-0.491,0.335-1.024,0.603-1.586,0.797c-0.528,0.266-1.096,0.445-1.681,0.53C433.672,397.183,433.113,397.243,432.552,397.259z"/>
	<path style="fill:#F0C419;" d="M467.862,397.259c-4.163-0.041-7.72-3.011-8.502-7.1s1.427-8.162,5.281-9.736
		c3.854-1.574,8.283-0.213,10.588,3.255c2.304,3.467,1.844,8.078-1.1,11.022C472.437,396.31,470.199,397.224,467.862,397.259z"/>
	<path style="fill:#71C285;" d="M467.862,432.569c-2.337-0.035-4.575-0.949-6.268-2.56c-0.798-0.844-1.427-1.833-1.854-2.914
		c-0.497-1.047-0.739-2.196-0.706-3.354c0.014-2.341,0.931-4.586,2.56-6.268c2.526-2.546,6.341-3.312,9.653-1.937
		c3.312,1.375,5.463,4.618,5.442,8.204c-0.014,1.153-0.254,2.293-0.707,3.353c-0.448,1.07-1.075,2.055-1.854,2.914
		C472.445,431.633,470.202,432.549,467.862,432.569z"/>
	<path style="fill:#E64C3C;" d="M432.552,432.569c-0.564-0.016-1.126-0.075-1.681-0.177c-0.583-0.085-1.147-0.264-1.672-0.53
		c-0.565-0.194-1.101-0.462-1.595-0.797c-0.44-0.35-0.879-0.703-1.319-1.056c-3.414-3.481-3.414-9.054,0-12.534l1.319-1.06
		c0.494-0.335,1.03-0.604,1.595-0.797c0.524-0.267,1.09-0.445,1.672-0.526c2.881-0.58,5.862,0.313,7.948,2.383
		c0.353,0.44,0.707,0.879,1.06,1.41c0.347,0.452,0.615,0.959,0.793,1.5c0.269,0.526,0.447,1.095,0.526,1.681
		c0.107,0.553,0.168,1.114,0.181,1.677c-0.018,0.591-0.078,1.18-0.181,1.763c-0.093,0.554-0.27,1.09-0.526,1.59
		c-0.194,0.562-0.461,1.097-0.793,1.591c-0.353,0.44-0.707,0.879-1.06,1.323c-0.44,0.353-0.888,0.707-1.328,1.056
		c-0.491,0.335-1.024,0.603-1.586,0.797c-0.528,0.266-1.096,0.445-1.681,0.53C433.672,432.494,433.113,432.553,432.552,432.569z"/>
</g>
<g>
</g>
<g>
</g>
<g>
</g>
<g>
</g>
<g>
</g>
<g>
</g>
<g>
</g>
<g>
</g>
<g>
</g>
<g>
</g>
<g>
</g>
<g>
</g>
<g>
</g>
<g>
</g>
<g>
</g>
</svg>
